<?xml version="1.0" encoding="UTF-8" standalone="no"?>
<!-- Created with Inkscape (http://www.inkscape.org/) -->

<svg
   width="40"
   height="40"
   viewBox="0 0 10.583333 10.583334"
   version="1.1"
   id="svg5"
   inkscape:version="1.1.2 (0a00cf5339, 2022-02-04)"
   sodipodi:docname="heart-full.svg"
   xmlns:inkscape="http://www.inkscape.org/namespaces/inkscape"
   xmlns:sodipodi="http://sodipodi.sourceforge.net/DTD/sodipodi-0.dtd"
   xmlns="http://www.w3.org/2000/svg"
   xmlns:svg="http://www.w3.org/2000/svg">
  <sodipodi:namedview
     id="namedview7"
     pagecolor="#505050"
     bordercolor="#ffffff"
     borderopacity="1"
     inkscape:pageshadow="0"
     inkscape:pageopacity="0"
     inkscape:pagecheckerboard="1"
     inkscape:document-units="mm"
     showgrid="false"
     inkscape:zoom="58.357269"
     inkscape:cx="33.911799"
     inkscape:cy="19.012199"
     inkscape:window-width="2560"
     inkscape:window-height="1536"
     inkscape:window-x="0"
     inkscape:window-y="27"
     inkscape:window-maximized="1"
     inkscape:current-layer="layer1"
     width="10.896011mm"
     units="px" />
  <defs
     id="defs2">
    <inkscape:perspective
       sodipodi:type="inkscape:persp3d"
       inkscape:vp_x="0 : 1.5416265 : 1"
       inkscape:vp_y="0 : 1000.0001 : 0"
       inkscape:vp_z="24.921585 : 1.5416265 : 1"
       inkscape:persp3d-origin="12.460792 : -2.593844 : 1"
       id="perspective7591" />
  </defs>
  <g
     inkscape:label="Layer 1"
     inkscape:groupmode="layer"
     id="layer1"
     transform="translate(-142.45325,-38.192489)">
    <g
       id="g993"
       transform="matrix(0.35277778,0,0,0.35277778,133.3562,36.283882)"
       style="fill:#f87171;fill-opacity:1">
      <path
         style="fill:#f87171;fill-opacity:1;stroke-width:0.0190585"
         d="M 39.935365,32.730764 C 39.662505,32.418829 29.168394,19.979947 28.476495,19.148336 27.990517,18.564224 27.245189,17.656491 27.056172,17.418529 26.813215,17.11266 26.488746,16.47465 26.26559,15.863999 25.439154,13.602505 25.692981,11.052331 26.948451,9.0033664 27.421076,8.2320289 28.078222,7.4985263 28.77885,6.9602876 c 1.038958,-0.798151 2.208689,-1.2961729 3.467097,-1.4761413 0.472385,-0.067557 1.210096,-0.080749 1.692802,-0.030271 1.427222,0.149247 2.742211,0.699028 3.874839,1.6200227 0.277382,0.2255531 0.780518,0.7286894 1.022893,1.0228945 0.262913,0.3191355 0.392981,0.5065463 1.157179,1.6673404 0.356665,0.5417671 0.654251,0.9850291 0.661304,0.9850291 0.0071,0 0.349637,-0.512454 0.761302,-1.1387885 0.411663,-0.6263343 0.822228,-1.2322016 0.912365,-1.3463717 0.923623,-1.1699004 2.099524,-2.0070977 3.466191,-2.4677967 0.47658,-0.160654 0.917827,-0.2605685 1.484666,-0.3361833 0.300805,-0.040126 1.351919,-0.034126 1.672492,0.00955 0.835186,0.1137823 1.560675,0.3330616 2.296136,0.6940069 2.196503,1.0779861 3.753585,3.2010221 4.156696,5.6675303 0.0771,0.471716 0.08564,0.602667 0.08581,1.315025 1.88e-4,0.560919 -0.0063,0.727146 -0.037,0.971042 -0.114344,0.9057 -0.353954,1.713807 -0.745131,2.513024 -0.297951,0.60875 -0.35099,0.682838 -1.102064,1.539435 -0.528616,0.602881 -13.39229,14.823781 -13.413771,14.829036 -0.01042,0.0025 -0.126174,-0.118014 -0.257287,-0.267905 z"
         id="path10856" />
      <path
         style="fill:#f87171;fill-opacity:1;stroke-width:0.0199811"
         d="M 40.077638,35.125146 C 39.802034,34.785998 29.202398,21.261505 28.50354,20.357304 28.012676,19.722205 27.259853,18.735227 27.068935,18.476483 26.823536,18.143902 26.495804,17.44997 26.270404,16.785698 c -0.834746,-2.460079 -0.578368,-5.235514 0.689727,-7.4666444 0.477377,-0.8399141 1.141131,-1.6388622 1.848804,-2.2253689 1.049407,-0.8697273 2.2309,-1.4129944 3.501962,-1.6102486 0.477135,-0.074046 1.222264,-0.089227 1.709824,-0.034837 1.441574,0.1608157 2.769786,0.7576262 3.913802,1.7586031 0.280174,0.2451409 0.788367,0.7921006 1.033181,1.1119892 0.265555,0.3469953 0.396931,0.550794 1.168815,1.8131376 0.36025,0.589163 0.660829,1.071196 0.667953,1.071189 0.0071,-8e-6 0.353154,-0.558055 0.768958,-1.2401057 0.415803,-0.6820504 0.830496,-1.3418271 0.92154,-1.4661702 0.932909,-1.2741434 2.120636,-2.186515 3.501045,-2.6893871 0.481373,-0.1753605 0.927057,-0.2845835 1.499595,-0.3675037 0.30383,-0.044003 1.365514,-0.03865 1.68931,0.00852 0.843583,0.122885 1.576369,0.3606969 2.319225,0.7526615 2.21859,1.1706269 3.79133,3.4792142 4.198495,6.1628652 0.07787,0.513245 0.0865,0.655739 0.08667,1.430941 1.89e-4,0.610404 -0.0063,0.791303 -0.03737,1.056749 -0.115493,0.98573 -0.357513,1.865396 -0.752624,2.735558 -0.300945,0.662787 -0.354519,0.743471 -1.113146,1.676479 -0.53393,0.656659 -13.526958,16.146531 -13.548655,16.152274 -0.01053,0.0027 -0.127443,-0.128285 -0.259873,-0.291252 z"
         id="path1808" />
    </g>
  </g>
</svg>
