<?xml version="1.0" encoding="UTF-8" standalone="no"?>
<!-- Created with Inkscape (http://www.inkscape.org/) -->

<svg
   width="40"
   height="40"
   viewBox="0 0 10.583333 10.583334"
   version="1.1"
   id="svg5"
   inkscape:version="1.1.2 (0a00cf5339, 2022-02-04)"
   sodipodi:docname="heart-empty.svg"
   xmlns:inkscape="http://www.inkscape.org/namespaces/inkscape"
   xmlns:sodipodi="http://sodipodi.sourceforge.net/DTD/sodipodi-0.dtd"
   xmlns="http://www.w3.org/2000/svg"
   xmlns:svg="http://www.w3.org/2000/svg">
  <sodipodi:namedview
     id="namedview7"
     pagecolor="#505050"
     bordercolor="#ffffff"
     borderopacity="1"
     inkscape:pageshadow="0"
     inkscape:pageopacity="0"
     inkscape:pagecheckerboard="1"
     inkscape:document-units="mm"
     showgrid="false"
     inkscape:zoom="38.85895"
     inkscape:cx="20.149798"
     inkscape:cy="26.518987"
     inkscape:window-width="2560"
     inkscape:window-height="1536"
     inkscape:window-x="0"
     inkscape:window-y="27"
     inkscape:window-maximized="1"
     inkscape:current-layer="g993"
     units="px" />
  <defs
     id="defs2">
    <inkscape:perspective
       sodipodi:type="inkscape:persp3d"
       inkscape:vp_x="0 : 1.5416264 : 1"
       inkscape:vp_y="0 : 1000.0001 : 0"
       inkscape:vp_z="24.921585 : 1.5416264 : 1"
       inkscape:persp3d-origin="12.460793 : -2.5938439 : 1"
       id="perspective7591" />
  </defs>
  <g
     inkscape:label="Layer 1"
     inkscape:groupmode="layer"
     id="layer1"
     transform="translate(-142.45219,-38.196539)">
    <g
       id="g993"
       transform="matrix(0.35277778,0,0,0.35277778,133.3562,36.283882)">
      <path
         id="rect7158"
         style="fill:#ffffff;stroke-width:0.542599"
         d="M 33.266267,5.4342366 C 31.821581,5.4451056 30.362259,5.9239153 29.07519,6.9087094 25.643005,9.5348269 24.771243,14.737903 27.119924,18.575515 L 40.338266,35.422084 54.513593,18.569146 C 56.859141,14.729141 55.982683,9.5265478 52.548358,6.9039325 49.114032,4.2813171 44.461071,5.2613056 42.115522,9.101311 L 40.816758,11.228628 39.510874,9.0949417 C 38.042948,6.6964343 35.674081,5.4161224 33.266267,5.4342366 Z m 0.751917,1.2802118 c 0.135826,-0.00104 0.271933,0.00287 0.407288,0.011146 2.030312,0.124156 3.985703,1.2922043 5.22781,3.3677216 l 1.179141,1.969679 1.17202,-1.96331 c 0.06616,-0.1107633 0.133515,-0.2192429 0.203644,-0.3248299 1.254335,-1.8885202 3.128915,-2.9447509 5.066889,-3.0508531 0.07925,-0.00264 0.156552,-0.00591 0.237823,-0.00636 0.09105,-0.00133 0.182253,-0.00129 0.273423,0.00159 0.0867,0.00217 0.169004,0.00814 0.253487,0.012738 1.171115,0.087546 2.339078,0.5245007 3.382198,1.3391271 0.290601,0.2269445 0.560793,0.4746169 0.810304,0.740421 0.08317,0.088601 0.163562,0.1798089 0.242094,0.2722838 1.089256,1.2826441 1.729372,2.9266251 1.874094,4.6367861 0.0074,0.197553 0.01424,0.390738 0.01424,0.743607 0,0.347881 -0.0071,0.534928 -0.01424,0.730866 -0.0995,1.201292 -0.446055,2.391904 -1.058093,3.474407 -0.144188,0.199088 -0.492008,0.637623 -0.922807,1.175119 L 40.437952,34.350463 c -3.8e-4,3.31e-4 -0.02405,0.0286 -0.0242,0.02867 -0.0077,0.0027 -0.208707,-0.248739 -0.434345,-0.533422 L 29.997996,20.836586 C 29.087274,19.632359 28.472823,18.809473 28.32897,18.596215 26.388938,15.080838 27.208149,10.44385 30.234394,8.0758676 31.396071,7.166877 32.714246,6.7244816 34.018184,6.7144484 Z" />
    </g>
  </g>
</svg>
