<?xml version="1.0" encoding="UTF-8" standalone="no"?>
<!-- Created with Inkscape (http://www.inkscape.org/) -->

<svg
   width="10.896011mm"
   height="9.7322874mm"
   viewBox="0 0 10.896011 9.7322874"
   version="1.1"
   id="svg5"
   inkscape:version="1.1.2 (0a00cf5339, 2022-02-04)"
   sodipodi:docname="empty-heart.svg"
   xmlns:inkscape="http://www.inkscape.org/namespaces/inkscape"
   xmlns:sodipodi="http://sodipodi.sourceforge.net/DTD/sodipodi-0.dtd"
   xmlns="http://www.w3.org/2000/svg"
   xmlns:svg="http://www.w3.org/2000/svg">
  <sodipodi:namedview
     id="namedview7"
     pagecolor="#505050"
     bordercolor="#ffffff"
     borderopacity="1"
     inkscape:pageshadow="0"
     inkscape:pageopacity="0"
     inkscape:pagecheckerboard="1"
     inkscape:document-units="mm"
     showgrid="false"
     inkscape:zoom="38.85895"
     inkscape:cx="21.333567"
     inkscape:cy="14.758505"
     inkscape:window-width="2560"
     inkscape:window-height="1536"
     inkscape:window-x="0"
     inkscape:window-y="27"
     inkscape:window-maximized="1"
     inkscape:current-layer="g993" />
  <defs
     id="defs2">
    <inkscape:perspective
       sodipodi:type="inkscape:persp3d"
       inkscape:vp_x="0 : 0.69058045 : 1"
       inkscape:vp_y="0 : 1000.0001 : 0"
       inkscape:vp_z="24.921586 : 0.69058045 : 1"
       inkscape:persp3d-origin="12.460793 : -3.4448898 : 1"
       id="perspective7591" />
  </defs>
  <g
     inkscape:label="Layer 1"
     inkscape:groupmode="layer"
     id="layer1"
     transform="translate(-142.45219,-38.196539)">
    <g
       id="g993"
       transform="matrix(0.35277778,0,0,0.35277778,133.3562,36.283882)">
      <path
         id="rect7158"
         style="fill:#ffffff;stroke-width:0.703765"
         d="M 12.083984,0 C 10.102602,0.01333333 8.1011482,0.60064174 6.3359375,1.8085938 1.6287095,5.0297991 0.43309019,11.411911 3.6542969,16.119141 L 21.783203,36.783203 41.224609,16.111328 C 44.441519,11.401164 43.239461,5.0196439 38.529297,1.8027344 33.819132,-1.4141752 27.437614,-0.21211769 24.220703,4.4980469 l -1.78125,2.609375 -1.791015,-2.6171875 C 18.635184,1.5482164 15.386291,-0.02221893 12.083984,0 Z m 1.03125,1.5703125 c 0.186286,-0.00128 0.372956,0.00352 0.558594,0.013672 2.784565,0.1522903 5.466378,1.5850226 7.169922,4.1308594 l 1.617188,2.4160156 1.607421,-2.4082032 c 0.09073,-0.1358626 0.183115,-0.268924 0.279297,-0.3984374 1.720315,-2.3164658 4.291295,-3.6120424 6.949219,-3.7421876 0.108688,-0.00324 0.214709,-0.00725 0.326172,-0.00781 0.124871,-0.00163 0.24996,-0.00159 0.375,0.00195 0.118917,0.00266 0.231787,0.00998 0.347656,0.015625 1.606179,0.1073841 3.208036,0.6433544 4.638672,1.6425781 0.398557,0.278371 0.769124,0.5821669 1.111328,0.9082031 0.114068,0.1086788 0.224325,0.2205543 0.332031,0.3339844 1.49391,1.5732956 2.371827,3.5898082 2.570313,5.6874991 0.01017,0.242319 0.01953,0.47928 0.01953,0.91211 0,0.426712 -0.0098,0.656145 -0.01953,0.896484 -0.136474,1.473508 -0.611764,2.933918 -1.451172,4.261719 -0.197752,0.244202 -0.674785,0.782111 -1.265625,1.441406 L 21.919922,35.46875 c -5.21e-4,4.05e-4 -0.03299,0.03509 -0.0332,0.03516 -0.01051,0.0033 -0.286241,-0.305103 -0.595703,-0.654297 L 7.6015625,18.892578 C 6.3525109,17.415469 5.5097929,16.406114 5.3125,16.144531 2.6517528,11.832556 3.7752983,6.1448098 7.9257812,3.2402344 9.5190159,2.1252632 11.326888,1.5826192 13.115234,1.5703125 Z"
         transform="matrix(0.75,0,0,0.75,24.399553,5.4218891)" />
    </g>
  </g>
</svg>
